<svg id="Layer_1" data-name="Layer 1" xmlns="http://www.w3.org/2000/svg" xmlns:xlink="http://www.w3.org/1999/xlink" viewBox="0 0 395 510"><defs><linearGradient id="linear-gradient" x1="256" y1="53" x2="256" y2="372.15" gradientTransform="matrix(1, 0, 0, -1, 0, 512)" gradientUnits="userSpaceOnUse"><stop offset="0.32" stop-color="#a163f5"/><stop offset="0.47" stop-color="#b074ee"/><stop offset="0.75" stop-color="#d8a1dd"/><stop offset="0.9" stop-color="#efbad3"/></linearGradient></defs><path d="M440.58,240a5,5,0,0,0,6.64-2.43,5.09,5.09,0,0,0,.46-2.28c-.63-18.41-17-39.61-34.13-56.89,8.33-64.2-.48-108.16-9.43-133.83-10-28.63-22.18-41.51-22.7-42A5,5,0,0,0,372.92,5c-.05.27-6.2,27.67-39.6,51.7-8.68,6.24-18.09,13.33-26.15,19.51-4.93-3-11.72-5.36-20.27-7.2a127.5,127.5,0,0,0-58,1.33c-8.47,2.15-15.18,4.74-20.06,7.71a84.6,84.6,0,0,0-13.63-8.73c-30.47-14.67-56.29-65-56.55-65.56a5,5,0,0,0-8.06-1.21c-.51.54-12.72,13.42-22.7,42.05-16,46-14.11,97.73-9.44,133.83C81.32,195.69,65,216.89,64.33,235.3a5,5,0,0,0,7.1,4.71l12.15-5.62c-11.5,17.27-26.8,46.14-24.92,75.3a5,5,0,0,0,9.61,1.58,84,84,0,0,1,3.87-8C68.9,314,66.05,326.42,66.43,336.1a5,5,0,0,0,9.18,2.55A124.89,124.89,0,0,1,86.45,324.7c-.33,15.27,2.78,40.9,23.65,60.9,28.74,27.53,40,42.46,40.06,42.61a5,5,0,0,0,8.94-3.82l-.94-5.56c8.74,11.92,18.28,26.37,19.74,33.9.41,2.1,1.51,7.7,6.54,7.24,4.78-.44,5.29-5.56,5.7-9.68.28-2.82.52-6.71.71-11.55v-.29c14.46,21.6,43.35,62.19,62.48,71.9a6,6,0,0,0,5.43,0c19.12-9.7,47.93-50.25,62.36-71.87v.26c.2,4.84.44,8.73.72,11.55.41,4.12.92,9.25,5.7,9.68,5,.45,6.12-5.14,6.53-7.24,1.46-7.53,11-22,19.75-33.89l-.95,5.55a5,5,0,0,0,8.95,3.82c.11-.15,11.31-15.08,40.05-42.61,20.87-20,24-45.63,23.66-60.89a125.7,125.7,0,0,1,10.84,13.94,5,5,0,0,0,9.18-2.55c.38-9.66-2.46-22.07-5.7-32.79a82.18,82.18,0,0,1,3.86,8,5,5,0,0,0,9.61-1.58c1.88-29.16-13.42-58-24.92-75.3ZM339.16,64.8c24.63-17.72,35.69-37.06,40.38-48.28,1.44,2.15,3.08,4.81,4.84,8-2.42,8.35-7.55,16.79-15.3,25.11a104.92,104.92,0,0,1-17.67,15.12c-22.66,15-32.89,30.17-37.49,40.38-3.28-4.51-7.52-8.91-12.8-11.61C310.2,86.42,325.6,74.56,339.16,64.8ZM133.43,15.09c8.53,15,30.75,50.38,57.42,63.22,6.66,3.2,15,9.89,20.72,14.88a35.15,35.15,0,0,0-12,9.93c-5.12-7.24-15.86-18.58-38.08-33.47-12.2-8.18-27.83-22.58-33.91-45.12A107.22,107.22,0,0,1,133.43,15.09ZM422,308.35a5,5,0,0,0-7.5,5.28c.08.38,7.56,38.81-19.5,64.74-13.13,12.58-22.64,22.53-29.19,29.76L367,400.8a5,5,0,0,0-8.79-4c-2.31,2.81-17.89,21.95-27.22,38.32-.15-4.23-.25-8.72-.29-12.94a5,5,0,0,0-9.24-2.6c-11.76,18.84-45.71,68.86-65.43,80.85-19.73-12-53.76-62-65.55-80.85a5,5,0,0,0-9.24,2.6c0,4.21-.14,8.71-.29,12.93-9.33-16.37-24.91-35.51-27.22-38.32a5,5,0,0,0-8.79,4l1.24,7.33c-6.55-7.23-16.06-17.18-29.19-29.76C90,352.43,97.44,314,97.51,313.63a5,5,0,0,0-7.5-5.28c-3.94,2.4-8,6.32-11.62,10.35,3.07-14,8.77-28.6,10.7-33.38,6.25-3.37,28.4-16,42.33-32.63C127.51,268.86,128,284.05,133,297s14.14,23.71,27.43,32.3a4.93,4.93,0,0,0,1,2.15c5.78,7.38,18.55,24.58,26.55,42.3,3,6.56,5.78,12.38,8.38,17.31a40.92,40.92,0,0,0,21.93,19.37c2.34,3.19,8.29,9.77,19.95,14a53.09,53.09,0,0,0,18.33,3.26,51.93,51.93,0,0,0,18.53-3.39c11.26-4.29,16.69-10.68,18.86-14a40.87,40.87,0,0,0,21.77-19.31c2.6-4.93,5.43-10.75,8.39-17.31,8-17.69,20.77-34.91,26.55-42.3a4.93,4.93,0,0,0,1-2.15c13.29-8.59,22.48-19.38,27.43-32.3s5.48-28.17,1.56-44.33c13.94,16.63,36.08,29.25,42.33,32.63,1.94,4.77,7.64,19.39,10.7,33.37C430,314.68,425.93,310.76,422,308.35ZM179.3,339q6.24,2.51,13.24,4.59c-.66,5.07-1,10-1.2,14.78-3.9-7.09-8.15-13.72-12-19.37Zm93.95,73.37c1.05.18,2.1.32,3.14.42a40.21,40.21,0,0,1-4.9,2.26,43.18,43.18,0,0,1-35.28-2.33c.84-.09,1.69-.2,2.54-.35A33.3,33.3,0,0,0,256,403.38a33.3,33.3,0,0,0,17.25,8.95Zm-41.74-40.2c0-10.28,11.31-18.64,25.21-18.64s25.21,8.36,25.21,18.64-11.31,18.63-25.21,18.63-25.21-8.36-25.21-18.64Zm87.95-28.58q7-2.08,13.24-4.59c-3.89,5.65-8.15,12.28-12.05,19.37a148.09,148.09,0,0,0-1.19-14.78Zm122.08-56c-3.56-4.5-7.79-8.46-12.5-10.31-1.41-.73-34.23-17.93-46.2-38.55-14.23-24.52-42.64-37.59-57.67-37.59-21.09,0-32,12.33-32.34,36.63a50.89,50.89,0,0,0-4.65,11.18,5,5,0,0,0,9.49,3.08,56.16,56.16,0,0,0,7.44.53c8.7,0,15.8-2.31,21.15-6.93,6.33-5.45,8.59-12.77,9.39-17.73a5,5,0,0,0,0-9.82,42.89,42.89,0,0,0-31.1,6.68c2.9-9.41,9.49-13.62,20.59-13.62,10.47,0,22.16,6,31.78,13.66-3.42,8.85-14.09,32.64-31.61,38.76-8.8,3.08-18,1.25-28.29-5.58a5,5,0,1,0-5.55,8.32c12.85,8.57,25.35,10.83,37.14,6.7,17.92-6.26,29.36-25.91,35-38.2,6,12.73,14.47,36.75,6.07,58.66-7,18.23-24.4,31.72-51.79,40.14a216.68,216.68,0,0,0-5.81-23.4,238.12,238.12,0,0,0-14.65-37,5,5,0,0,0-8.89,4.57l0,.06c.3.58,30.1,58.51,20.07,105.15-.61,1.2-1.2,2.36-1.79,3.47-6.27,11.87-19.06,18.32-31.85,16.07a23.26,23.26,0,0,1-7.83-3c14.33-3.63,24.77-14.52,24.77-27.35,0-15.79-15.8-28.64-35.21-28.64s-35.21,12.85-35.21,28.64c0,12.53,10,23.2,23.76,27.07a23.17,23.17,0,0,1-8.27,3.28c-12.78,2.26-25.58-4.2-31.85-16.07-.58-1.11-1.18-2.27-1.79-3.47-10-46.57,19.78-104.57,20.08-105.16a5,5,0,0,0-8.87-4.62,239.07,239.07,0,0,0-14.64,37,216.68,216.68,0,0,0-5.81,23.4c-27.37-8.42-44.78-21.89-51.78-40.09-6.25-16.25-3-33.67.76-45.42a112.78,112.78,0,0,1,5.29-13.29c5.6,12.29,17,31.94,35,38.2,11.8,4.12,24.29,1.87,37.14-6.7A5,5,0,1,0,215,258c-10.24,6.83-19.49,8.65-28.27,5.59-17.57-6.13-28.29-30.15-31.68-38.89,11.25-8.64,23.94-13.54,31.83-13.54,11.1,0,17.69,4.2,20.59,13.62a42.91,42.91,0,0,0-31.1-6.68,5,5,0,0,0,0,9.82c.8,5,3.05,12.28,9.38,17.73,5.37,4.62,12.45,6.93,21.16,6.93a55.89,55.89,0,0,0,7.43-.53,5,5,0,0,0,9.49-3.08,50.37,50.37,0,0,0-4.64-11.18c-.38-24.3-11.26-36.63-32.35-36.63-15,0-43.43,13.07-57.67,37.59-12,20.62-44.78,37.81-46.2,38.55-4.7,1.85-8.93,5.8-12.48,10.3,7.3-33.2,32.36-62.35,32.66-62.7A5,5,0,0,0,97.26,217L76,226.86c8.92-27,50.55-61.81,67.58-74.09a5,5,0,0,0-2-9l11.3-4.19a5,5,0,0,0,1.63-8.39L144,121.72l30.08,6.18a5,5,0,0,0,2-9.8l-48-9.86a5,5,0,0,0-4.37,8.6l17.9,16.24-26.58,9.86a5,5,0,0,0,1.51,9.68l10.16.46c-5.35,4.3-12.16,10-19.3,16.62-6.45-57.79,1.5-97.54,9.6-121.1,1.41-4.12,2.88-7.89,4.35-11.33C129.64,57,144.22,70.09,156,78c24.5,16.41,33.77,27.9,37,33a5.24,5.24,0,0,0,.84,1,65.69,65.69,0,0,0-4.27,9.49A5,5,0,0,0,199,124.6h0c.08-.24,8.41-23.8,22.88-23.8a5,5,0,0,0,3.47-8.59c-.3-.29-3.54-3.41-8.15-7.36A80.05,80.05,0,0,1,231.34,80a117.56,117.56,0,0,1,53.45-1.24,73,73,0,0,1,13.63,4.16c-6.78,5.27-11.32,8.87-11.43,9v0a5,5,0,0,0,3.1,8.9c12.14,0,20.63,17.17,22.89,23.8a5,5,0,0,0,9.47-3.2q-1-2.73-2.19-5.36a4.89,4.89,0,0,0,.74-1.5c2.19-7.47,9.88-24.18,35.94-41.48,4.36-2.9,23.66-16.5,33.38-36.38,1.55,3.6,3.11,7.55,4.6,11.91,8.1,23.56,16.05,63.31,9.6,121.1-7.14-6.61-13.95-12.32-19.3-16.61l10.16-.47a5,5,0,0,0,1.51-9.68l-26.57-9.85,17.89-16.25a5,5,0,0,0-4.36-8.6l-48,9.87a5,5,0,0,0,2,9.8L368,121.73l-10.45,9.49a5,5,0,0,0,1.62,8.39l11.3,4.19a5,5,0,0,0-2,9c17,12.28,58.67,47.07,67.59,74.1L414.73,217a5,5,0,0,0-5.86,7.83c.3.33,25.38,29.46,32.67,62.7Zm-116-59.9A18.78,18.78,0,0,1,319.74,238c-4.11,3.53-10.17,5-18.05,4.36,6.47-11.07,16.65-14.1,23.82-14.74ZM210.31,242.4c-7.84.62-13.88-.82-18-4.31a18.72,18.72,0,0,1-5.83-10.43C193.66,228.3,203.83,231.34,210.31,242.4Z" transform="translate(-58.5 -1)" opacity="0.38" fill="url(#linear-gradient)"/></svg>