<?xml version="1.0" encoding="utf-8"?>
<!-- Generator: Adobe Illustrator 24.2.0, SVG Export Plug-In . SVG Version: 6.00 Build 0)  -->
<svg version="1.1" id="Layer_1" xmlns="http://www.w3.org/2000/svg" xmlns:xlink="http://www.w3.org/1999/xlink" x="0px" y="0px"
	 viewBox="0 0 2000 2582" style="enable-background:new 0 0 2000 2582;" xml:space="preserve">
<style type="text/css">
	.st0{opacity:0.38;fill:url(#SVGID_1_);}
</style>
<linearGradient id="SVGID_1_" gradientUnits="userSpaceOnUse" x1="1000.1471" y1="263.8924" x2="1000.1471" y2="1879.8687" gradientTransform="matrix(1 0 0 -1 0 2584)">
	<stop  offset="0.322" style="stop-color:#A163F5"/>
	<stop  offset="0.466" style="stop-color:#B074EE"/>
	<stop  offset="0.752" style="stop-color:#D8A1DD"/>
	<stop  offset="0.898" style="stop-color:#EFBAD3"/>
</linearGradient>
<path class="st0" d="M1934.7,1211.2c12.7,5.9,27.7,0.4,33.6-12.3c1.7-3.6,2.5-7.5,2.3-11.5c-3.2-93.2-86-200.6-172.8-288.1
	c42.2-325.1-2.5-547.7-47.7-677.6c-50.5-145-112.3-210.2-114.9-212.9c-9.7-10.1-25.8-10.3-35.9-0.6c-3.6,3.5-6.1,8-7.2,13
	c-0.3,1.4-31.4,140.1-200.5,261.8c-43.9,31.6-91.6,67.5-132.4,98.8c-24.9-14.9-59.3-27.1-102.6-36.5
	c-97.1-20.4-197.7-18.1-293.8,6.7c-42.9,10.9-76.9,24-101.5,39.1c-21.5-16.9-44.7-31.7-69-44.2C538,272.6,407.2,17.5,405.9,15
	c-6.3-12.5-21.6-17.5-34-11.1c-2.5,1.3-4.8,3-6.8,5c-2.6,2.7-64.4,67.9-114.9,212.9c-81.3,233.1-71.5,494.9-47.8,677.6
	c-86.7,87.5-169.6,194.8-172.7,288.1c-0.5,14,10.5,25.7,24.4,26.2c4,0.1,7.9-0.7,11.5-2.3l61.5-28.5
	C68.9,1270.3-8.6,1416.4,0.9,1564.1c0.9,14,12.9,24.5,26.9,23.6c9.7-0.6,18.1-6.7,21.8-15.6c5.8-13.8,12.3-27.3,19.6-40.5
	c-16.4,54.3-30.8,117.2-28.9,166.2c0.6,14,12.3,24.8,26.3,24.3c8.2-0.3,15.7-4.6,20.1-11.4c16.6-24.8,35-48.4,54.9-70.6
	c-1.7,77.3,14.1,207.1,119.8,308.3c145.5,139.4,202.3,215,202.8,215.8c8.3,11.2,24.2,13.6,35.4,5.2c7.6-5.7,11.5-15.2,9.9-24.5
	l-4.8-28.2c44.3,60.4,92.6,133.5,100,171.6c2.1,10.7,7.6,39,33.1,36.7c24.2-2.2,26.8-28.2,28.9-49c1.4-14.3,2.6-34,3.6-58.5l0.1-1.5
	c73.2,109.4,219.5,314.9,316.3,364.1c8.6,4.4,18.9,4.4,27.5,0c96.8-49.1,242.7-254.5,315.8-363.9l0.1,1.3c1,24.5,2.2,44.2,3.6,58.5
	c2.1,20.9,4.6,46.8,28.9,49c25.5,2.3,31-26,33.1-36.7c7.4-38.1,55.7-111.2,100-171.6l-4.8,28.1c-2.3,13.8,7,26.9,20.7,29.2
	c9.4,1.6,18.9-2.2,24.5-9.9c0.6-0.7,57.3-76.4,202.8-215.8c105.7-101.3,121.4-231,119.8-308.3c19.9,22.2,38.3,45.8,54.9,70.6
	c7.7,11.7,23.4,14.9,35.1,7.2c6.8-4.5,11.1-12,11.4-20.2c1.9-48.9-12.5-111.8-28.8-166c7.2,13.1,13.7,26.5,19.5,40.3
	c5.3,12.9,20.1,19.1,33,13.8c9-3.7,15-12.1,15.6-21.8c9.5-147.7-68-293.8-126.2-381.3L1934.7,1211.2z M1421.2,324.1
	c124.7-89.7,180.7-187.6,204.5-244.5c7.3,10.9,15.6,24.4,24.5,40.5c-12.2,42.3-38.2,85-77.4,127.1c-26.9,28.8-56.9,54.4-89.5,76.6
	c-114.7,76.1-166.5,152.8-189.8,204.5c-16.6-22.9-38.1-45.1-64.8-58.8C1274.6,433.6,1352.6,373.5,1421.2,324.1z M379.5,72.4
	c43.2,76.1,155.7,255.1,290.8,320.1c33.7,16.2,75.8,50.1,104.9,75.3c-23.7,12-44.4,29.2-60.6,50.3c-26-36.7-80.3-94.1-192.8-169.5
	C460,307.3,380.9,234.3,350.1,120.2C359.1,103.8,368.9,87.8,379.5,72.4z M1840.6,1557.3c-11.9-7.3-27.5-3.5-34.8,8.4
	c-3.3,5.5-4.5,12-3.2,18.3c0.4,1.9,38.3,196.5-98.8,327.8c-66.5,63.7-114.6,114.1-147.8,150.7l6.3-37.1c2.3-13.8-6.9-26.9-20.7-29.2
	c-9-1.5-18,1.9-23.8,8.9c-11.7,14.2-90.6,111.2-137.8,194c-0.7-21.4-1.2-44.2-1.5-65.5c-0.1-14-11.6-25.2-25.6-25.1
	c-8.6,0.1-16.6,4.6-21.2,11.9c-59.6,95.4-231.5,348.6-331.3,409.3c-99.9-60.7-272.2-313.9-331.9-409.4c-7.4-11.9-23-15.4-34.9-8
	c-7.3,4.6-11.8,12.6-11.9,21.2c-0.2,21.3-0.7,44.1-1.5,65.5c-47.2-82.9-126.1-179.8-137.8-194c-8.9-10.8-24.8-12.4-35.6-3.5
	c-7,5.8-10.4,14.8-8.9,23.8l6.3,37.1c-33.2-36.6-81.3-87-147.8-150.7c-137-131.3-99.2-325.9-98.8-327.8c2.9-13.7-5.9-27.1-19.6-30
	c-6.3-1.3-12.9-0.2-18.4,3.2c-20,12.2-40.6,32-58.8,52.4c15.5-70.8,44.4-144.8,54.2-169c31.6-17.1,143.8-81,214.3-165.2
	c-19.8,81.8-17.3,158.8,7.9,224.4c25.1,65.4,71.6,120.1,138.9,163.5c0.7,4,2.4,7.7,4.8,10.9c29.3,37.3,93.9,124.4,134.5,214.2
	c15,33.2,29.3,62.7,42.4,87.6c23.7,45.3,63.2,80.2,111,98.1c11.8,16.1,42,49.5,101,71c29.7,10.9,61.1,16.5,92.8,16.5
	c32,0,63.8-5.8,93.8-17.2c57.1-21.7,84.5-54.1,95.5-70.7c47.5-18,86.7-52.8,110.2-97.8c13.2-24.9,27.5-54.4,42.5-87.6
	c40.5-89.6,105.2-176.8,134.5-214.2c2.5-3.2,4.1-6.9,4.8-10.9c67.3-43.5,113.8-98.1,138.9-163.5c25.2-65.7,27.7-142.6,7.9-224.4
	c70.6,84.2,182.7,148.1,214.3,165.2c9.8,24.2,38.7,98.2,54.2,169C1881.2,1589.4,1860.6,1569.5,1840.6,1557.3z M611.8,1712.3
	c21.1,8.5,43.4,16.2,67,23.2c-3.3,25.7-5.3,50.6-6,74.8C653,1774.5,631.5,1740.9,611.8,1712.3L611.8,1712.3z M1087.5,2083.8
	c5.3,0.9,10.6,1.6,15.9,2.1c-8,4.4-16.3,8.2-24.8,11.5c-58.5,21.8-123.5,17.5-178.7-11.8c4.3-0.5,8.6-1,12.9-1.8
	c33-6.1,63.4-21.8,87.4-45.3C1024.1,2062,1054.5,2077.7,1087.5,2083.8L1087.5,2083.8z M876.2,1880.2c0-52,57.3-94.4,127.6-94.4
	c70.4,0,127.6,42.3,127.6,94.4c0,52-57.3,94.4-127.6,94.4S876.2,1932.3,876.2,1880.2L876.2,1880.2z M1321.5,1735.6
	c23.6-7,45.9-14.8,67-23.2c-19.7,28.6-41.2,62.2-61,98.1C1326.8,1786.2,1324.8,1761.2,1321.5,1735.6L1321.5,1735.6z M1939.6,1452.1
	c-18-22.8-39.4-42.8-63.3-52.2c-7.2-3.7-173.3-90.8-233.9-195.2c-72.1-124.2-215.9-190.3-292-190.3c-106.8,0-161.8,62.4-163.8,185.5
	c-10.1,17.9-18,36.9-23.5,56.6c-3.8,13.4,3.9,27.4,17.3,31.3c12.8,3.7,26.2-3.2,30.7-15.7c12.5,1.7,25,2.6,37.6,2.7
	c44.1,0,80-11.7,107.1-35.1c32.1-27.6,43.5-64.7,47.5-89.8c13.7-2.5,22.9-15.6,20.4-29.4c-1.9-10.3-9.9-18.4-20.2-20.3
	c-54.9-9.3-111.3,2.8-157.5,33.8c14.7-47.7,48.1-68.9,104.3-68.9c53,0,112.2,30.3,160.9,69.2c-17.4,44.8-71.4,165.2-160.1,196.3
	c-44.6,15.6-91.4,6.3-143.2-28.3c-11.6-7.8-27.4-4.6-35.1,7c-7.8,11.6-4.6,27.4,7,35.1c65.1,43.4,128.3,54.8,188,33.9
	c90.7-31.7,148.7-131.2,177-193.4c30.4,64.4,73.3,186.1,30.7,297c-35.4,92.3-123.5,160.6-262.3,203.2c-7.6-40-17.4-79.6-29.4-118.5
	c-19.4-64.4-44.2-127.1-74.1-187.5c-6.4-12.4-21.6-17.3-34.1-11c-12.4,6.4-17.3,21.6-11,34.1c0.1,0.1,0.1,0.2,0.2,0.3
	c1.5,3,152.4,296.3,101.7,532.5c-3.1,6.1-6.1,12-9.1,17.6c-31.7,60.1-96.5,92.8-161.3,81.4c-14-2.6-27.5-7.8-39.7-15.2
	c72.6-18.4,125.4-73.5,125.4-138.5c0-80-80-145-178.3-145s-178.3,65-178.3,145c0,63.5,50.4,117.5,120.3,137.1
	c-12.8,8.2-27,13.8-41.9,16.6c-64.7,11.5-129.5-21.3-161.3-81.4c-3-5.6-6-11.5-9.1-17.6c-50.7-235.8,100.1-529.5,101.7-532.5
	c6.4-12.4,1.5-27.7-11-34.1c-12.3-6.3-27.4-1.6-33.9,10.7c-29.9,60.3-54.7,123-74.1,187.5c-12,38.9-21.8,78.5-29.4,118.5
	c-138.6-42.6-226.7-110.8-262.2-203c-31.6-82.3-15.4-170.5,3.9-230c7.5-23,16.4-45.5,26.8-67.3c28.4,62.2,86.3,161.7,177,193.4
	c59.7,20.9,123,9.5,188-33.9c11.6-7.8,14.8-23.5,7-35.1c-7.8-11.6-23.5-14.8-35.1-7c-51.8,34.6-98.6,43.8-143.1,28.3
	c-89-31-143.2-152.7-160.4-196.9c57-43.8,121.2-68.5,161.2-68.5c56.2,0,89.6,21.3,104.3,68.9c-46.2-31-102.6-43.1-157.5-33.8
	c-13.7,2.6-22.7,15.8-20.1,29.5c1.9,10.3,10,18.3,20.3,20.2c4.1,25.1,15.5,62.2,47.5,89.8c27.2,23.4,63,35.1,107.1,35.1
	c12.6-0.1,25.2-1,37.6-2.7c4.8,13.1,19.3,19.9,32.4,15.1c12.5-4.5,19.3-18,15.7-30.7c-5.5-19.7-13.4-38.8-23.5-56.6
	c-1.9-123-57-185.4-163.8-185.4c-76.1,0-219.9,66.1-292,190.3c-60.6,104.4-226.7,191.4-233.9,195.2c-23.8,9.4-45.2,29.4-63.2,52.2
	c37-168.1,163.8-315.7,165.4-317.5c9.2-10.5,8.1-26.5-2.4-35.7c-7.5-6.6-18.2-8.1-27.3-3.9l-107.6,49.8
	c45.2-136.8,256-313,342.2-375.2c11.3-8.2,13.9-24,5.7-35.3c-3.8-5.3-9.6-8.9-16-10.1l57.2-21.2c13.1-4.9,19.8-19.4,14.9-32.5
	c-1.4-3.8-3.7-7.2-6.7-9.9l-52.9-48.1l152.3,31.3c13.7,2.8,27.1-6,29.9-19.7c2.8-13.7-6-27.1-19.7-29.9l-242.9-50
	c-13.7-2.8-27.1,6-29.9,19.7c-1.8,8.8,1.2,17.8,7.8,23.9l90.6,82.2l-134.6,49.9c-13.1,4.9-19.8,19.4-14.9,32.5
	c3.5,9.5,12.4,16,22.6,16.5l51.4,2.3c-27.1,21.7-61.6,50.6-97.7,84.1c-32.7-292.6,7.6-493.9,48.6-613.2c7.2-20.8,14.6-39.9,22-57.3
	c41.6,100,115.4,166.2,174.9,206c124.1,83.1,171,141.3,187.4,167c1.2,1.8,2.6,3.5,4.2,5c-8.5,15.4-15.7,31.5-21.6,48.1
	c-4.5,13.3,2.7,27.6,15.9,32.1c13.3,4.5,27.6-2.7,32.1-15.9l0,0c0.4-1.2,42.6-120.5,115.9-120.5c14,0,25.3-11.3,25.3-25.2
	c0-6.9-2.8-13.5-7.8-18.3c-1.5-1.5-17.9-17.3-41.2-37.3c23-10.4,46.9-18.6,71.5-24.5c88.5-22.9,181.1-25,270.6-6.3
	c23.6,4.7,46.8,11.8,69,21.1c-34.3,26.7-57.3,44.9-57.9,45.3l0.1,0.1c-11,8.6-12.9,24.5-4.3,35.4c4.8,6.1,12.2,9.7,20,9.7
	c61.5,0,104.5,87,115.9,120.5c4.5,13.2,19,20.3,32.2,15.7c13.1-4.5,20.1-18.7,15.8-31.9c-3.2-9.2-6.9-18.3-11.1-27.2
	c1.7-2.3,2.9-4.9,3.7-7.6c11.1-37.8,50-122.4,182-210c22.1-14.7,119.8-83.5,169-184.2c7.9,18.2,15.7,38.2,23.3,60.3
	c41,119.3,81.3,320.6,48.6,613.2c-36.1-33.5-70.6-62.4-97.7-84.1l51.4-2.3c14-0.6,24.8-12.5,24.1-26.4c-0.5-10.2-7-19-16.5-22.6
	L1579,669.9l90.6-82.2c10.4-9.4,11.1-25.4,1.7-35.8c-6-6.6-15.1-9.6-23.9-7.8l-242.9,50c-13.7,2.8-22.5,16.2-19.7,29.9
	s16.2,22.5,29.9,19.7l152.3-31.3l-52.9,48.1c-10.4,9.4-11.1,25.4-1.7,35.8c2.7,3,6.1,5.3,9.9,6.7l57.2,21.2
	c-13.8,2.5-22.9,15.7-20.4,29.4c1.2,6.5,4.8,12.2,10.1,16c86.3,62.2,297.1,238.3,342.2,375.2l-107.7-49.8
	c-12.7-5.9-27.7-0.3-33.6,12.3c-4.2,9.1-2.7,19.7,3.9,27.3C1775.7,1136.3,1902.7,1283.8,1939.6,1452.1L1939.6,1452.1z
	 M1352.1,1148.8c-3.8,20.2-14.1,38.6-29.2,52.5c-20.8,17.9-51.5,25.3-91.4,22.1C1264.3,1167.4,1315.8,1152,1352.1,1148.8
	L1352.1,1148.8z M768.8,1223.4c-39.7,3.2-70.3-4.1-91.1-21.8c-15.3-13.9-25.7-32.4-29.5-52.8C684.5,1152,736,1167.4,768.8,1223.4z"
	/>
<g>
</g>
<g>
</g>
<g>
</g>
<g>
</g>
<g>
</g>
<g>
</g>
<g>
</g>
<g>
</g>
<g>
</g>
<g>
</g>
<g>
</g>
<g>
</g>
<g>
</g>
<g>
</g>
<g>
</g>
</svg>
